# xmcd
#
# Track frame offsets:
#	150
#	18102
#	37525
#	56395
#	69642
#	85937
#	104202
#	123710
#	144630
#	163230
#	185037
#	208417
#
# Disc length: 2977 seconds
#
# Revision: 0
# Processed by: cddbd v1.5.1PL0 Copyright (c) Steve Scherf et al.
# Submitted via: MusicManager 7.0.3.0 
#
DISCID=b10b9f0c
DTITLE=Hiatt, John - The Best Of John Hiatt - The Millennium Collection
DYEAR=2003
DGENRE=rock
TTITLE0=Memphis In The Meantime
TTITLE1=Riding With The King
TTITLE2=Thing Called Love
TTITLE3=Tennessee Plates
TTITLE4=Slow Turning
TTITLE5=Have A Little Faith In Me
TTITLE6=Real Fine Love
TTITLE7=Perfectly Good Guitar
TTITLE8=Thank You Girl
TTITLE9=Feels Like Rain
TTITLE10=Buffalo River Home
TTITLE11=Angel
EXTD=
EXTT0=
EXTT1=
EXTT2=
EXTT3=
EXTT4=
EXTT5=
EXTT6=
EXTT7=
EXTT8=
EXTT9=
EXTT10=
EXTT11=
PLAYORDER=
